<svg width="25" height="24" viewBox="0 0 25 24" fill="none" xmlns="http://www.w3.org/2000/svg">
<path d="M12.7398 23.241L12.7299 23.2427L12.666 23.2725L12.648 23.2759L12.6354 23.2725L12.5716 23.2427C12.562 23.2399 12.5548 23.2413 12.55 23.247L12.5464 23.2555L12.5311 23.6197L12.5356 23.6367L12.5446 23.6477L12.6381 23.7107L12.6516 23.7141L12.6624 23.7107L12.756 23.6477L12.7668 23.6341L12.7704 23.6197L12.7551 23.2563C12.7527 23.2473 12.7476 23.2421 12.7398 23.241ZM12.9782 23.1449L12.9665 23.1466L12.8001 23.2257L12.7911 23.2342L12.7884 23.2436L12.8046 23.6094L12.8091 23.6197L12.8163 23.6256L12.9971 23.7047C13.0085 23.7076 13.0172 23.7053 13.0232 23.6979L13.0268 23.686L12.9962 23.1636C12.9932 23.1534 12.9872 23.1471 12.9782 23.1449ZM12.3349 23.1466C12.331 23.1443 12.3262 23.1436 12.3217 23.1445C12.3172 23.1455 12.3132 23.148 12.3106 23.1517L12.3052 23.1636L12.2747 23.686C12.2753 23.6962 12.2804 23.703 12.29 23.7064L12.3034 23.7047L12.4843 23.6256L12.4933 23.6188L12.4969 23.6094L12.5122 23.2436L12.5095 23.2334L12.5005 23.2248L12.3349 23.1466Z" fill="#0557A0"/>
<path d="M15.2467 2C15.941 2 16.5549 2.343 16.9208 2.866L17.0072 3H18.2961C18.8089 2.99984 19.3029 3.19041 19.679 3.5335C20.0551 3.87659 20.2854 4.34684 20.3239 4.85L20.329 5V17C20.3289 18.2885 19.8232 19.5272 18.9175 20.4578C18.0117 21.3884 16.7757 21.9391 15.4673 21.995L15.2467 22H6.09869C5.58582 22.0002 5.09183 21.8096 4.71577 21.4665C4.3397 21.1234 4.10934 20.6532 4.07088 20.15L4.0658 20V5C4.06563 4.49542 4.25933 4.00943 4.60807 3.63945C4.9568 3.26947 5.43479 3.04284 5.94622 3.005L6.09869 3H7.38755C7.55139 2.72075 7.78142 2.48461 8.05805 2.31171C8.33468 2.13881 8.64969 2.03427 8.97625 2.007L9.14803 2H15.2467ZM7.11514 5H6.09869V20H15.2467C16.0555 20 16.8311 19.6839 17.4029 19.1213C17.9748 18.5587 18.2961 17.7956 18.2961 17V5H17.2796C17.2796 5.53043 17.0654 6.03914 16.6842 6.41421C16.3029 6.78929 15.7859 7 15.2467 7H9.14803C8.60888 7 8.0918 6.78929 7.71056 6.41421C7.32932 6.03914 7.11514 5.53043 7.11514 5ZM12.1974 14C12.4564 14.0003 12.7056 14.0979 12.894 14.2728C13.0824 14.4478 13.1958 14.687 13.2109 14.9414C13.2261 15.1958 13.142 15.4464 12.9757 15.6418C12.8094 15.8373 12.5736 15.9629 12.3163 15.993L12.1974 16H9.14803C8.88896 15.9997 8.63978 15.9021 8.45139 15.7272C8.26301 15.5522 8.14964 15.313 8.13446 15.0586C8.11928 14.8042 8.20342 14.5536 8.3697 14.3582C8.53598 14.1627 8.77185 14.0371 9.02911 14.007L9.14803 14H12.1974ZM15.2467 10C15.5163 10 15.7748 10.1054 15.9655 10.2929C16.1561 10.4804 16.2632 10.7348 16.2632 11C16.2632 11.2652 16.1561 11.5196 15.9655 11.7071C15.7748 11.8946 15.5163 12 15.2467 12H9.14803C8.87845 12 8.61992 11.8946 8.4293 11.7071C8.23868 11.5196 8.13159 11.2652 8.13159 11C8.13159 10.7348 8.23868 10.4804 8.4293 10.2929C8.61992 10.1054 8.87845 10 9.14803 10H15.2467ZM15.2467 4H9.14803V5H15.2467V4Z" fill="#0557A0"/>
</svg>
