<svg width="25" height="24" viewBox="0 0 25 24" fill="none" xmlns="http://www.w3.org/2000/svg">
<path d="M20.3289 10C20.3289 9.73481 20.2218 9.48046 20.0312 9.29292C19.8406 9.10539 19.5821 9.00003 19.3125 9.00003C19.0429 9.00003 18.7844 9.10539 18.5937 9.29292C18.4031 9.48046 18.296 9.73481 18.296 10H20.3289ZM6.09867 10C6.09867 9.73481 5.99158 9.48046 5.80095 9.29292C5.61033 9.10539 5.3518 9.00003 5.08222 9.00003C4.81264 9.00003 4.5541 9.10539 4.36348 9.29292C4.17286 9.48046 4.06577 9.73481 4.06577 10H6.09867ZM20.6267 12.707C20.8185 12.8892 21.0752 12.99 21.3417 12.9877C21.6082 12.9854 21.8632 12.8803 22.0516 12.6948C22.2401 12.5094 22.347 12.2586 22.3493 11.9964C22.3516 11.7342 22.2492 11.4816 22.064 11.293L20.6267 12.707ZM12.1973 3.00003L12.916 2.29303C12.7254 2.10556 12.4669 2.00024 12.1973 2.00024C11.9278 2.00024 11.6693 2.10556 11.4787 2.29303L12.1973 3.00003ZM2.3307 11.293C2.23361 11.3853 2.15618 11.4956 2.10291 11.6176C2.04964 11.7396 2.0216 11.8709 2.02042 12.0036C2.01925 12.1364 2.04497 12.2681 2.09608 12.391C2.14718 12.5139 2.22266 12.6255 2.3181 12.7194C2.41353 12.8133 2.52702 12.8876 2.65194 12.9379C2.77686 12.9881 2.9107 13.0134 3.04567 13.0123C3.18063 13.0111 3.31401 12.9835 3.43802 12.9311C3.56203 12.8787 3.67419 12.8025 3.76795 12.707L2.3307 11.293ZM7.11511 22H17.2796V20H7.11511V22ZM20.3289 19V10H18.296V19H20.3289ZM6.09867 19V10H4.06577V19H6.09867ZM22.064 11.293L12.916 2.29303L11.4787 3.70703L20.6267 12.707L22.064 11.293ZM11.4787 2.29303L2.3307 11.293L3.76795 12.707L12.916 3.70703L11.4787 2.29303ZM17.2796 22C18.0883 22 18.8639 21.684 19.4358 21.1214C20.0077 20.5587 20.3289 19.7957 20.3289 19H18.296C18.296 19.2652 18.1889 19.5196 17.9983 19.7071C17.8077 19.8947 17.5492 20 17.2796 20V22ZM7.11511 20C6.84553 20 6.587 19.8947 6.39638 19.7071C6.20576 19.5196 6.09867 19.2652 6.09867 19H4.06577C4.06577 19.7957 4.38704 20.5587 4.9589 21.1214C5.53076 21.684 6.30638 22 7.11511 22V20Z" fill="#2C2C2C"/>
</svg>
