<svg width="25" height="24" viewBox="0 0 25 24" fill="none" xmlns="http://www.w3.org/2000/svg">
<path d="M4.0658 18C4.0658 16.9391 4.49415 15.9217 5.25664 15.1716C6.01912 14.4214 7.05327 14 8.13159 14H16.2632C17.3415 14 18.3756 14.4214 19.1381 15.1716C19.9006 15.9217 20.329 16.9391 20.329 18C20.329 18.5304 20.1148 19.0391 19.7335 19.4142C19.3523 19.7893 18.8352 20 18.2961 20H6.09869C5.55953 20 5.04246 19.7893 4.66122 19.4142C4.27998 19.0391 4.0658 18.5304 4.0658 18Z" stroke="#2C2C2C" stroke-width="2" stroke-linejoin="round"/>
<path d="M12.1974 10C13.8815 10 15.2468 8.65685 15.2468 7C15.2468 5.34315 13.8815 4 12.1974 4C10.5133 4 9.14807 5.34315 9.14807 7C9.14807 8.65685 10.5133 10 12.1974 10Z" stroke="#2C2C2C" stroke-width="2"/>
</svg>
