<svg width="25" height="24" viewBox="0 0 25 24" fill="none" xmlns="http://www.w3.org/2000/svg">
<path d="M15.2467 2C15.941 2 16.5549 2.343 16.9208 2.866L17.0072 3H18.2961C18.8089 2.99984 19.3029 3.19041 19.679 3.5335C20.0551 3.87659 20.2854 4.34684 20.3239 4.85L20.329 5V17C20.3289 18.2885 19.8232 19.5272 18.9175 20.4578C18.0117 21.3884 16.7757 21.9391 15.4673 21.995L15.2467 22H6.09869C5.58582 22.0002 5.09183 21.8096 4.71577 21.4665C4.3397 21.1234 4.10934 20.6532 4.07088 20.15L4.0658 20V5C4.06563 4.49542 4.25933 4.00943 4.60807 3.63945C4.9568 3.26947 5.43479 3.04284 5.94622 3.005L6.09869 3H7.38755C7.55139 2.72075 7.78142 2.48461 8.05805 2.31171C8.33468 2.13881 8.64969 2.03427 8.97625 2.007L9.14803 2H15.2467ZM7.11514 5H6.09869V20H15.2467C16.0555 20 16.8311 19.6839 17.4029 19.1213C17.9748 18.5587 18.2961 17.7956 18.2961 17V5H17.2796C17.2796 5.53043 17.0654 6.03914 16.6842 6.41421C16.3029 6.78929 15.7859 7 15.2467 7H9.14803C8.60888 7 8.0918 6.78929 7.71056 6.41421C7.32932 6.03914 7.11514 5.53043 7.11514 5ZM12.1974 14C12.4564 14.0003 12.7056 14.0979 12.894 14.2728C13.0824 14.4478 13.1958 14.687 13.2109 14.9414C13.2261 15.1958 13.142 15.4464 12.9757 15.6418C12.8094 15.8373 12.5736 15.9629 12.3163 15.993L12.1974 16H9.14803C8.88896 15.9997 8.63978 15.9021 8.45139 15.7272C8.26301 15.5522 8.14964 15.313 8.13446 15.0586C8.11928 14.8042 8.20342 14.5536 8.3697 14.3582C8.53598 14.1627 8.77185 14.0371 9.02911 14.007L9.14803 14H12.1974ZM15.2467 10C15.5163 10 15.7748 10.1054 15.9655 10.2929C16.1561 10.4804 16.2632 10.7348 16.2632 11C16.2632 11.2652 16.1561 11.5196 15.9655 11.7071C15.7748 11.8946 15.5163 12 15.2467 12H9.14803C8.87845 12 8.61992 11.8946 8.4293 11.7071C8.23868 11.5196 8.13159 11.2652 8.13159 11C8.13159 10.7348 8.23868 10.4804 8.4293 10.2929C8.61992 10.1054 8.87845 10 9.14803 10H15.2467ZM15.2467 4H9.14803V5H15.2467V4Z" fill="#2C2C2C"/>
<path d="M15.2465 2.5C15.7707 2.5 16.2318 2.75746 16.5072 3.14746L16.5873 3.27051L16.7347 3.5H18.2963C18.6854 3.49989 19.059 3.64501 19.3422 3.90332C19.5896 4.1292 19.7521 4.42691 19.808 4.74902L19.8256 4.8877L19.8285 5V17L19.8236 17.2168C19.7706 18.2955 19.3236 19.3238 18.559 20.1094C17.743 20.9476 16.6277 21.4446 15.4457 21.4951L15.2357 21.5H6.099C5.70983 21.5001 5.33625 21.355 5.0531 21.0967C4.80551 20.8708 4.64319 20.5732 4.58728 20.251L4.5697 20.1123L4.5658 19.9834V5L4.57263 4.85938C4.60379 4.53422 4.74286 4.22558 4.97205 3.98242C5.2333 3.70528 5.5925 3.53355 5.97888 3.50391L6.11462 3.5H7.67419L7.81873 3.25293C7.9414 3.04386 8.11394 2.86583 8.32263 2.73535C8.52846 2.6067 8.7634 2.52789 9.0072 2.50586L9.16833 2.5H15.2465ZM5.599 20.5H15.2465C16.1852 20.5 17.0871 20.133 17.7533 19.4775C18.4198 18.8218 18.7963 17.9309 18.7963 17V4.5H16.7797V5C16.7797 5.39517 16.62 5.77566 16.3334 6.05762C16.0465 6.33985 15.6556 6.5 15.2465 6.5H9.14783C8.73874 6.49995 8.34773 6.3398 8.06091 6.05762C7.77447 5.77568 7.6156 5.39506 7.6156 5V4.5H5.599V20.5ZM12.1967 14.5L12.2963 14.5098C12.393 14.5283 12.4828 14.5734 12.5541 14.6396C12.6487 14.7278 12.7047 14.8463 12.7123 14.9707C12.7197 15.0953 12.6782 15.2195 12.5951 15.3174C12.512 15.4151 12.3923 15.4791 12.2601 15.4951L12.1849 15.5H9.1488C9.0147 15.4999 8.88663 15.4488 8.79138 15.3604C8.69671 15.2722 8.64072 15.1537 8.63318 15.0293C8.62575 14.9047 8.66724 14.7805 8.75037 14.6826C8.83331 14.5851 8.95245 14.5201 9.08435 14.5039L9.16052 14.5H12.1967ZM9.14783 10.5H15.2465C15.386 10.5 15.5184 10.5547 15.6146 10.6494C15.7106 10.7438 15.7631 10.87 15.7631 11C15.7631 11.13 15.7106 11.2562 15.6146 11.3506C15.5184 11.4453 15.386 11.5 15.2465 11.5H9.14783C9.00832 11.4999 8.87587 11.4452 8.77966 11.3506C8.68381 11.2562 8.63123 11.1299 8.63123 11L8.64099 10.9033C8.66024 10.8087 8.70786 10.7201 8.77966 10.6494C8.87587 10.5548 9.00832 10.5001 9.14783 10.5ZM8.64783 5.5H15.7465V3.5H8.64783V5.5Z" stroke="#2C2C2C" stroke-opacity="0.5"/>
</svg>
